<svg xmlns="http://www.w3.org/2000/svg" viewBox="0 0 163.32 157.78"><defs><style>.cls-1{fill:#5ab24f;}.cls-2{fill:#3c3c3b;}</style></defs><title>Element 1</title><g id="Ebene_2" data-name="Ebene 2"><g id="Layer_1" data-name="Layer 1"><path class="cls-1" d="M19.19,147.06a17.54,17.54,0,0,1-.48,4.2,8.48,8.48,0,0,1-1.7,3.39,8.21,8.21,0,0,1-3.27,2.3,13.77,13.77,0,0,1-5.18.83A14.23,14.23,0,0,1,3.51,157a12.51,12.51,0,0,1-3.29-1.74l2-4.37a15.39,15.39,0,0,0,2.71,1.43,8.27,8.27,0,0,0,3.29.69,5.25,5.25,0,0,0,4.1-1.42c.85-.94,1.28-2.55,1.28-4.85V126.55h5.6Z" transform="translate(-0.22)"/><path class="cls-1" d="M46.9,145.56a14.88,14.88,0,0,1-.8,5,11.07,11.07,0,0,1-2.25,3.84,10.11,10.11,0,0,1-3.51,2.47,11.25,11.25,0,0,1-4.52.88,11.12,11.12,0,0,1-4.5-.88,10.18,10.18,0,0,1-3.48-2.47,11.45,11.45,0,0,1-2.28-3.84,14.63,14.63,0,0,1-.81-5,14.46,14.46,0,0,1,.81-5,11.13,11.13,0,0,1,2.3-3.81,10,10,0,0,1,3.51-2.45,11.14,11.14,0,0,1,4.45-.86,11.36,11.36,0,0,1,4.48.86,9.8,9.8,0,0,1,3.51,2.45,11.39,11.39,0,0,1,2.27,3.81A14.45,14.45,0,0,1,46.9,145.56Zm-5.48,0A9,9,0,0,0,40,140.12a4.84,4.84,0,0,0-4.13-2,4.82,4.82,0,0,0-4.12,2,8.94,8.94,0,0,0-1.48,5.44,9.15,9.15,0,0,0,1.48,5.52,4.81,4.81,0,0,0,4.12,2,4.83,4.83,0,0,0,4.13-2A9.22,9.22,0,0,0,41.42,145.56Z" transform="translate(-0.22)"/><path class="cls-1" d="M73.19,145.61a14.39,14.39,0,0,1-.82,5A10.71,10.71,0,0,1,70,154.43a10,10,0,0,1-3.68,2.43,13.43,13.43,0,0,1-4.9.84,31.51,31.51,0,0,1-5.05-.4,33.43,33.43,0,0,1-4-.88V123.77l5.34-.88v12A13.32,13.32,0,0,1,60,134a10.7,10.7,0,0,1,3-.39,10.57,10.57,0,0,1,4.34.85,8.65,8.65,0,0,1,3.2,2.45,11.22,11.22,0,0,1,2,3.82A16.62,16.62,0,0,1,73.19,145.61Zm-5.47-.09a9.44,9.44,0,0,0-1.35-5.38,4.74,4.74,0,0,0-4.25-2,7.84,7.84,0,0,0-2.5.4,7.61,7.61,0,0,0-1.87.88v13.28a13.09,13.09,0,0,0,1.48.24,17.07,17.07,0,0,0,2.18.11,5.7,5.7,0,0,0,4.63-2A8.39,8.39,0,0,0,67.72,145.52Z" transform="translate(-0.22)"/><path class="cls-1" d="M99.57,145.56a14.88,14.88,0,0,1-.79,5,11.07,11.07,0,0,1-2.25,3.84A10.11,10.11,0,0,1,93,156.86a11.32,11.32,0,0,1-4.52.88,11.12,11.12,0,0,1-4.5-.88,10.12,10.12,0,0,1-3.49-2.47,11.27,11.27,0,0,1-2.27-3.84,14.39,14.39,0,0,1-.82-5,14.22,14.22,0,0,1,.82-5,11.11,11.11,0,0,1,2.29-3.81A10.16,10.16,0,0,1,84,134.34a11.19,11.19,0,0,1,4.46-.86,11.31,11.31,0,0,1,4.47.86,9.8,9.8,0,0,1,3.51,2.45,11.23,11.23,0,0,1,2.27,3.81A14.22,14.22,0,0,1,99.57,145.56Zm-5.47,0a8.94,8.94,0,0,0-1.48-5.44,5.24,5.24,0,0,0-8.25,0,9,9,0,0,0-1.48,5.44,9.22,9.22,0,0,0,1.48,5.52,5.21,5.21,0,0,0,8.25,0A9.15,9.15,0,0,0,94.1,145.56Z" transform="translate(-0.22)"/><path class="cls-2" d="M103.8,145.61a14.16,14.16,0,0,1,.8-4.79,11.36,11.36,0,0,1,2.27-3.86,10.41,10.41,0,0,1,3.6-2.56,11.89,11.89,0,0,1,4.76-.92,16,16,0,0,1,6.18,1.19L120.26,139a12.06,12.06,0,0,0-2.1-.67,11.67,11.67,0,0,0-2.49-.26,5.83,5.83,0,0,0-4.76,2,8.43,8.43,0,0,0-1.64,5.54,8.74,8.74,0,0,0,1.55,5.45c1,1.34,2.76,2,5.2,2a13.82,13.82,0,0,0,5-.92l.75,4.41a11.13,11.13,0,0,1-2.67.79,18.59,18.59,0,0,1-3.68.36,13.41,13.41,0,0,1-5.14-.91,9.76,9.76,0,0,1-3.62-2.51,10.46,10.46,0,0,1-2.14-3.84A16,16,0,0,1,103.8,145.61Z" transform="translate(-0.22)"/><path class="cls-2" d="M133.58,133.48a13.11,13.11,0,0,1,4.46.66,7.18,7.18,0,0,1,2.89,1.85,7,7,0,0,1,1.54,2.89,14.11,14.11,0,0,1,.47,3.73v14c-.83.18-2.07.39-3.73.64a38.06,38.06,0,0,1-5.63.38,16.57,16.57,0,0,1-3.79-.4,7.89,7.89,0,0,1-2.94-1.28,6.06,6.06,0,0,1-1.89-2.29,7.89,7.89,0,0,1-.69-3.49,6.67,6.67,0,0,1,.78-3.35,6.38,6.38,0,0,1,2.09-2.23,9.15,9.15,0,0,1,3.07-1.23,16.89,16.89,0,0,1,5.49-.27,17.59,17.59,0,0,1,2.07.38v-.89a6.79,6.79,0,0,0-.22-1.76,3.56,3.56,0,0,0-.77-1.48,3.74,3.74,0,0,0-1.45-1,6.28,6.28,0,0,0-2.28-.35,19.79,19.79,0,0,0-3.39.26,14.93,14.93,0,0,0-2.52.62l-.66-4.32a20.91,20.91,0,0,1,3-.71A22.66,22.66,0,0,1,133.58,133.48Zm.44,19.89a20.47,20.47,0,0,0,3.75-.26V147.2a10,10,0,0,0-1.28-.27,11.58,11.58,0,0,0-1.85-.13,12.17,12.17,0,0,0-1.79.13,5.54,5.54,0,0,0-1.63.49,3,3,0,0,0-1.17,1,2.8,2.8,0,0,0-.44,1.61,2.84,2.84,0,0,0,1.19,2.63A6.22,6.22,0,0,0,134,153.37Z" transform="translate(-0.22)"/><path class="cls-2" d="M162.61,138.86a16,16,0,0,0-1.83-.46,12.83,12.83,0,0,0-2.71-.25,10.55,10.55,0,0,0-1.88.18,11.66,11.66,0,0,0-1.39.31v18.48h-5.34v-22a30.23,30.23,0,0,1,3.86-1.08,24,24,0,0,1,5.14-.5c.36,0,.77,0,1.24.06s.94.1,1.41.18.93.16,1.37.26.79.2,1.06.29Z" transform="translate(-0.22)"/><path class="cls-1" d="M82,0a57.11,57.11,0,0,0-42.2,18.56l-5.5-3.83-4.6,20.71,23.6-7.51-5.56-3.86a54.84,54.84,0,0,1,86.37,9.41A57.28,57.28,0,0,0,82,0Z" transform="translate(-0.22)"/><path class="cls-1" d="M108.23,90.59l4.61,3.2A55,55,0,0,1,35,88.17c-.46-.09-.93-.18-1.39-.29a57.26,57.26,0,0,0,87.25,11.48l6.38,4.43,4.6-20.7Z" transform="translate(-0.22)"/><path class="cls-2" d="M113.74,84.75a14.57,14.57,0,0,1-8.8-3,20,20,0,0,0,2.6-5,9,9,0,0,0,15.24-6.56,2.76,2.76,0,0,1,5-1.55l.15.22s7.89-.06,10-.09c.47,0,1.16-.63,2.24-2,2.34-2.91,2.83-8.91,2.83-8.91l-33.87,0a2,2,0,0,1-2-2,2.1,2.1,0,0,1,2.13-2l33.91,0a16.56,16.56,0,0,0-.54-3.4l-.07-.23-.22-.09c-4.43-1.78-10.23-3.44-13.34-4.34-1-.27-1.64-.47-2.06-.6-1.46-.46-2.56-1.77-4.09-3.58s-5.07-6-9.55-8a22.89,22.89,0,0,0-5.59-1.45,24,24,0,0,0-6.5-6.56,105.87,105.87,0,0,1,11,2c.46.12,2.87.77,3.27.94,5.62,2.47,9.19,6.71,11.55,9.52a18.17,18.17,0,0,0,1.72,1.93c.3.13,1.06.31,1.72.5a132.36,132.36,0,0,1,15.34,5.13,2.73,2.73,0,0,1,1.44,1.47c3,7.12,1,17.3-2.46,22.65-2.38,3.64-5,4.44-6.77,4.48-2.1,0-10.44.09-10.44.09l-.11.33A14.52,14.52,0,0,1,113.74,84.75Z" transform="translate(-0.22)"/><path class="cls-2" d="M43.33,84.75a14.69,14.69,0,0,1-13.59-9.33l-.12-.31-9-.06a7,7,0,0,1-5.05-2.2A6.55,6.55,0,0,1,13.77,68c.38-7.52,2.71-20.67,14-24.34A64.94,64.94,0,0,1,43.11,41c2.17-.18,4.66-.28,5.48-.69a34.73,34.73,0,0,0,3.86-2.91,74.09,74.09,0,0,1,9.93-6.93,20.66,20.66,0,0,0-4.12,9.41c-.82.63-1.61,1.25-2.37,1.85-1.67,1.32-3.25,2.57-4.75,3.53a2.73,2.73,0,0,1-.72.32,37.32,37.32,0,0,1-6.85.93A60.65,60.65,0,0,0,29.49,48.9a11.68,11.68,0,0,0-5.9,4.42l-.72,1a21.27,21.27,0,0,1,3.59-.46H49.89a2,2,0,0,1,0,4.08H26.46a7.24,7.24,0,0,0-6.17,3.21l-.08.33a39.08,39.08,0,0,0-.92,6.78,1.12,1.12,0,0,0,.32.8,1.5,1.5,0,0,0,1.07.46l8.13,0,.12-.32a2.77,2.77,0,0,1,5.37.94,9,9,0,0,0,18.07,0,2.77,2.77,0,1,1,5.53,0A14.58,14.58,0,0,1,43.33,84.75Z" transform="translate(-0.22)"/><path class="cls-1" d="M103.32,67.36c-.77-6-5.11-10.16-10.28-12.76a78.74,78.74,0,0,0-8.94-3.78c-2.64-1-5.68-1.92-7.78-3.85a6.09,6.09,0,0,1-1.24-7.11c1.11-2.19,3.48-3.2,5.78-3.59,5.88-1,12.17.46,17.66,2.54.09-.38,1.42-5.89,2.13-9a62.48,62.48,0,0,0-13-3.08c0-2.26,0-9.25,0-9.25H78.22s0,7.16,0,9.81C69,28.82,65.7,34.12,64.54,36.79a17.49,17.49,0,0,0-1.05,10,13.66,13.66,0,0,0,5.19,8.14c3,2.37,6.72,3.73,10.31,5,3.26,1.19,6.77,2.29,9.65,4.29,2.72,1.9,4.35,5.2,3.06,8.47-1,2.6-3.57,3.67-6.15,4.09A35,35,0,0,1,64.84,73.3c-.44,1.23-2.11,6.09-3,8.32a47,47,0,0,0,16.34,4.2V96.88h9.42V85.6c4.4-.6,8.15-1.9,10.53-3.88C102.35,78.23,104,72.63,103.32,67.36Z" transform="translate(-0.22)"/></g></g></svg>