<svg xmlns="http://www.w3.org/2000/svg" viewBox="0 0 135.05 114.55"><defs><style>.cls-1{fill:#5ab24f;}.cls-2{fill:#3c3c3b;}</style></defs><title>Element 3</title><g id="Ebene_2" data-name="Ebene 2"><g id="Layer_1" data-name="Layer 1"><path class="cls-1" d="M68.26,0a57.11,57.11,0,0,0-42.2,18.56l-5.5-3.83L16,35.44l23.6-7.51L34,24.07a54.84,54.84,0,0,1,86.37,9.41A57.3,57.3,0,0,0,68.26,0Z"/><path class="cls-1" d="M94.47,90.59l4.6,3.2a54.94,54.94,0,0,1-77.83-5.62c-.47-.09-.93-.18-1.39-.29A57.26,57.26,0,0,0,107.1,99.36l6.37,4.43,4.6-20.7Z"/><path class="cls-2" d="M100,84.75a14.57,14.57,0,0,1-8.8-3,20,20,0,0,0,2.6-5A9,9,0,0,0,109,70.19a2.76,2.76,0,0,1,5-1.55l.15.22s7.89-.06,10-.09c.47,0,1.16-.63,2.24-2,2.34-2.91,2.83-8.91,2.83-8.91l-33.87,0a2,2,0,0,1-2-2,2.1,2.1,0,0,1,2.13-2l33.9,0a16.28,16.28,0,0,0-.53-3.4l-.07-.23-.22-.09c-4.43-1.78-10.23-3.44-13.35-4.34-1-.27-1.63-.47-2-.6-1.46-.46-2.56-1.77-4.09-3.58s-5.07-6-9.55-8A23,23,0,0,0,94,32.23a23.9,23.9,0,0,0-6.49-6.56,106.35,106.35,0,0,1,11,2c.46.12,2.87.77,3.27.94,5.62,2.47,9.19,6.71,11.55,9.52a18.17,18.17,0,0,0,1.72,1.93c.29.13,1.06.31,1.72.5a133,133,0,0,1,15.34,5.13,2.76,2.76,0,0,1,1.44,1.47c3,7.12,1,17.3-2.46,22.65-2.38,3.64-5,4.44-6.77,4.48-2.1,0-10.44.09-10.44.09l-.11.33A14.52,14.52,0,0,1,100,84.75Z"/><path class="cls-2" d="M29.57,84.75A14.68,14.68,0,0,1,16,75.42l-.12-.31-9-.06a7,7,0,0,1-5-2.2A6.55,6.55,0,0,1,0,68c.38-7.52,2.71-20.67,14-24.34A64.94,64.94,0,0,1,29.35,41c2.17-.18,4.66-.28,5.48-.69a35.69,35.69,0,0,0,3.86-2.91,74.09,74.09,0,0,1,9.93-6.93,20.66,20.66,0,0,0-4.12,9.41l-2.38,1.85c-1.67,1.32-3.25,2.57-4.74,3.53a2.88,2.88,0,0,1-.72.32,37.57,37.57,0,0,1-6.86.93A60.66,60.66,0,0,0,15.73,48.9a11.68,11.68,0,0,0-5.9,4.42l-.73,1a21.44,21.44,0,0,1,3.6-.46H36.13a2,2,0,0,1,0,4.08H12.7a7.24,7.24,0,0,0-6.17,3.21l-.09.33a39.1,39.1,0,0,0-.91,6.78,1.12,1.12,0,0,0,.32.8,1.47,1.47,0,0,0,1.07.46l8.13,0,.12-.32a2.76,2.76,0,0,1,5.36.94,9,9,0,0,0,18.08,0,2.77,2.77,0,1,1,5.53,0A14.58,14.58,0,0,1,29.57,84.75Z"/><path class="cls-1" d="M89.55,67.36c-.76-6-5.1-10.16-10.27-12.76a78.74,78.74,0,0,0-8.94-3.78c-2.64-1-5.68-1.92-7.78-3.85a6.09,6.09,0,0,1-1.24-7.11c1.1-2.19,3.48-3.2,5.77-3.59,5.88-1,12.18.46,17.67,2.54.09-.38,1.42-5.89,2.13-9a62.48,62.48,0,0,0-13-3.08c0-2.26,0-9.25,0-9.25H64.46s0,7.16,0,9.81c-9.28,1.48-12.55,6.78-13.71,9.45a17.49,17.49,0,0,0-1.05,10,13.61,13.61,0,0,0,5.19,8.14c3,2.37,6.72,3.73,10.3,5,3.27,1.19,6.78,2.29,9.65,4.29s4.36,5.2,3.07,8.47c-1,2.6-3.57,3.67-6.15,4.09A35,35,0,0,1,51.08,73.3c-.45,1.23-2.11,6.09-3,8.32a47,47,0,0,0,16.34,4.2V96.88h9.42V85.6c4.4-.6,8.15-1.9,10.53-3.88C88.59,78.23,90.23,72.63,89.55,67.36Z"/></g></g></svg>