<svg xmlns="http://www.w3.org/2000/svg" viewBox="0 0 183.73 56.93"><defs><style>.cls-1{fill:#5ab24f;}.cls-2{fill:#3c3c3b;}</style></defs><title>Element 2</title><g id="Ebene_2" data-name="Ebene 2"><g id="Layer_1" data-name="Layer 1"><path class="cls-1" d="M33.92,0A28.37,28.37,0,0,0,13,9.22l-2.73-1.9L7.93,17.61l11.73-3.73L16.9,12a27.25,27.25,0,0,1,42.92,4.68A28.47,28.47,0,0,0,33.92,0Z"/><path class="cls-1" d="M47,45l2.29,1.59a27.31,27.31,0,0,1-38.69-2.79l-.68-.14a28.45,28.45,0,0,0,43.35,5.7l3.17,2.2,2.29-10.29Z"/><path class="cls-2" d="M49.69,42.12a7.23,7.23,0,0,1-4.38-1.48,9.92,9.92,0,0,0,1.3-2.5,4.48,4.48,0,0,0,7.57-3.26,1.37,1.37,0,0,1,2.51-.77l.07.11,5,0c.24,0,.58-.32,1.12-1,1.16-1.45,1.4-4.43,1.4-4.43l-16.83,0a1,1,0,0,1-1-1,1,1,0,0,1,1.06-1l16.85,0a8.22,8.22,0,0,0-.27-1.69L64,25l-.11,0c-2.21-.89-5.09-1.71-6.64-2.16-.48-.13-.81-.23-1-.3a5.06,5.06,0,0,1-2-1.77,14.6,14.6,0,0,0-4.74-4A11.63,11.63,0,0,0,46.71,16a11.85,11.85,0,0,0-3.22-3.26,52.06,52.06,0,0,1,5.48,1c.23.05,1.43.38,1.63.46A16,16,0,0,1,56.34,19a8.47,8.47,0,0,0,.86,1,7.42,7.42,0,0,0,.85.25,67.4,67.4,0,0,1,7.63,2.55,1.41,1.41,0,0,1,.71.73c1.48,3.54.52,8.6-1.22,11.26a4.11,4.11,0,0,1-3.37,2.22l-5.19,0,0,.17A7.21,7.21,0,0,1,49.69,42.12Z"/><path class="cls-2" d="M14.7,42.12a7.3,7.3,0,0,1-6.76-4.64l-.06-.15-4.46,0A3.54,3.54,0,0,1,.91,36.21,3.3,3.3,0,0,1,0,33.78c.19-3.73,1.35-10.27,7-12.09a31.82,31.82,0,0,1,7.62-1.3,12.75,12.75,0,0,0,2.72-.34,18.44,18.44,0,0,0,1.92-1.45,38,38,0,0,1,4.93-3.44,10.15,10.15,0,0,0-2,4.67l-1.18.92c-.84.66-1.62,1.28-2.37,1.76a1.58,1.58,0,0,1-.35.16,19.57,19.57,0,0,1-3.41.46,30.15,30.15,0,0,0-7,1.17,5.85,5.85,0,0,0-2.94,2.2l-.36.5a10,10,0,0,1,1.79-.23H18a1,1,0,1,1,0,2H6.31a3.57,3.57,0,0,0-3.06,1.6l0,.16a19.46,19.46,0,0,0-.45,3.37.54.54,0,0,0,.16.4.74.74,0,0,0,.53.23l4,0,.06-.16a1.36,1.36,0,0,1,1.29-.91,1.37,1.37,0,0,1,1.38,1.37,4.49,4.49,0,0,0,9,0,1.38,1.38,0,0,1,2.75,0A7.25,7.25,0,0,1,14.7,42.12Z"/><path class="cls-1" d="M44.51,33.48c-.39-3-2.54-5-5.11-6.35A42.19,42.19,0,0,0,35,25.25a11.3,11.3,0,0,1-3.87-1.91,3,3,0,0,1-.62-3.53A3.74,3.74,0,0,1,33.34,18a17.18,17.18,0,0,1,8.78,1.26c.05-.19.71-2.93,1.06-4.46a31,31,0,0,0-6.47-1.52c0-1.13,0-4.6,0-4.6H32s0,3.56,0,4.88c-4.61.73-6.24,3.37-6.81,4.69a8.74,8.74,0,0,0-.53,4.95,6.78,6.78,0,0,0,2.59,4.05,18.25,18.25,0,0,0,5.11,2.5,20.28,20.28,0,0,1,4.8,2.14,3.54,3.54,0,0,1,1.52,4.21,3.62,3.62,0,0,1-3,2,17.49,17.49,0,0,1-10.3-1.73c-.22.61-1,3-1.48,4.13A23.36,23.36,0,0,0,32,42.65v5.5h4.69V42.54a10.52,10.52,0,0,0,5.23-1.93A7.91,7.91,0,0,0,44.51,33.48Z"/><path class="cls-1" d="M85.65,29.38a11.73,11.73,0,0,1-.33,2.85,5.71,5.71,0,0,1-1.15,2.31A5.56,5.56,0,0,1,82,36.1a9.36,9.36,0,0,1-3.52.57A9.59,9.59,0,0,1,75,36.11a8.36,8.36,0,0,1-2.24-1.18l1.35-3a10.86,10.86,0,0,0,1.85,1,5.64,5.64,0,0,0,2.23.46,3.6,3.6,0,0,0,2.79-1,4.91,4.91,0,0,0,.87-3.3V15.44h3.8Z"/><path class="cls-1" d="M104.48,28.36a10.13,10.13,0,0,1-.54,3.39,7.5,7.5,0,0,1-1.53,2.61A6.86,6.86,0,0,1,100,36a7.73,7.73,0,0,1-3.08.6,7.58,7.58,0,0,1-3-.6,6.91,6.91,0,0,1-2.37-1.68A7.52,7.52,0,0,1,90,31.75a9.88,9.88,0,0,1-.56-3.39A9.76,9.76,0,0,1,90,25a7.39,7.39,0,0,1,1.55-2.59,6.9,6.9,0,0,1,2.39-1.66,7.67,7.67,0,0,1,3-.59,7.82,7.82,0,0,1,3,.59,6.68,6.68,0,0,1,2.38,1.66A7.68,7.68,0,0,1,103.92,25,9.76,9.76,0,0,1,104.48,28.36Zm-3.72,0a6.13,6.13,0,0,0-1-3.7,3.57,3.57,0,0,0-5.61,0,6.13,6.13,0,0,0-1,3.7,6.25,6.25,0,0,0,1,3.75,3.54,3.54,0,0,0,5.61,0A6.25,6.25,0,0,0,100.76,28.36Z"/><path class="cls-1" d="M122.34,28.4a9.86,9.86,0,0,1-.55,3.4,7.33,7.33,0,0,1-1.59,2.59A6.83,6.83,0,0,1,117.7,36a9.15,9.15,0,0,1-3.33.57,22.33,22.33,0,0,1-6.14-.87V13.56l3.62-.6v8.12a8.67,8.67,0,0,1,1.55-.6,7.68,7.68,0,0,1,5,.32,5.79,5.79,0,0,1,2.18,1.66,7.83,7.83,0,0,1,1.33,2.59A11.4,11.4,0,0,1,122.34,28.4Zm-3.71-.07a6.42,6.42,0,0,0-.92-3.65,3.24,3.24,0,0,0-2.89-1.35,5.21,5.21,0,0,0-1.69.27,5.29,5.29,0,0,0-1.28.6v9a10,10,0,0,0,1,.17,12.54,12.54,0,0,0,1.48.07,3.88,3.88,0,0,0,3.15-1.36A5.71,5.71,0,0,0,118.63,28.33Z"/><path class="cls-1" d="M140.27,28.36a10.13,10.13,0,0,1-.54,3.39,7.5,7.5,0,0,1-1.53,2.61A6.86,6.86,0,0,1,135.82,36a7.71,7.71,0,0,1-3.07.6,7.59,7.59,0,0,1-3.06-.6,6.91,6.91,0,0,1-2.37-1.68,7.68,7.68,0,0,1-1.54-2.61,9.88,9.88,0,0,1-.56-3.39,9.76,9.76,0,0,1,.56-3.37,7.55,7.55,0,0,1,1.55-2.59,6.9,6.9,0,0,1,2.39-1.66,7.69,7.69,0,0,1,3-.59,7.81,7.81,0,0,1,3,.59,6.68,6.68,0,0,1,2.38,1.66A7.68,7.68,0,0,1,139.71,25,9.76,9.76,0,0,1,140.27,28.36Zm-3.72,0a6.13,6.13,0,0,0-1-3.7,3.57,3.57,0,0,0-5.61,0,6.13,6.13,0,0,0-1,3.7,6.25,6.25,0,0,0,1,3.75,3.54,3.54,0,0,0,5.61,0A6.25,6.25,0,0,0,136.55,28.36Z"/><path class="cls-2" d="M143.15,28.4a9.65,9.65,0,0,1,.54-3.26,7.69,7.69,0,0,1,1.54-2.62,7.06,7.06,0,0,1,2.44-1.74,8,8,0,0,1,3.24-.63,11,11,0,0,1,4.2.81l-.78,3a8.3,8.3,0,0,0-1.43-.45,7.62,7.62,0,0,0-1.69-.18A4,4,0,0,0,148,24.63a5.75,5.75,0,0,0-1.11,3.77,5.94,5.94,0,0,0,1,3.7,4.19,4.19,0,0,0,3.54,1.36,9.31,9.31,0,0,0,1.83-.18,8.6,8.6,0,0,0,1.56-.45l.51,3a7.61,7.61,0,0,1-1.82.54,12.85,12.85,0,0,1-2.5.24,9.07,9.07,0,0,1-3.49-.62,6.63,6.63,0,0,1-2.46-1.71,7,7,0,0,1-1.45-2.6A10.84,10.84,0,0,1,143.15,28.4Z"/><path class="cls-2" d="M163.38,20.15a8.88,8.88,0,0,1,3,.45,4.82,4.82,0,0,1,2,1.26,4.7,4.7,0,0,1,1,2,9.66,9.66,0,0,1,.31,2.54v9.5c-.56.12-1.4.26-2.53.43a25.77,25.77,0,0,1-3.82.26,11.48,11.48,0,0,1-2.58-.27,5.4,5.4,0,0,1-2-.87,4.11,4.11,0,0,1-1.29-1.56,5.41,5.41,0,0,1-.47-2.37,4.58,4.58,0,0,1,.53-2.28A4.28,4.28,0,0,1,159,27.69a6.2,6.2,0,0,1,2.09-.84,11.69,11.69,0,0,1,2.47-.25,11.13,11.13,0,0,1,1.26.07,11.82,11.82,0,0,1,1.41.26v-.6a4.7,4.7,0,0,0-.15-1.2,2.52,2.52,0,0,0-.53-1,2.45,2.45,0,0,0-1-.67,4.26,4.26,0,0,0-1.54-.24,13.71,13.71,0,0,0-2.31.18,10.16,10.16,0,0,0-1.71.42l-.45-2.94a14.29,14.29,0,0,1,2-.48A15.76,15.76,0,0,1,163.38,20.15Zm.3,13.52a13.51,13.51,0,0,0,2.55-.18v-4a7.06,7.06,0,0,0-.87-.18,8.11,8.11,0,0,0-1.26-.09,8.45,8.45,0,0,0-1.22.09,3.72,3.72,0,0,0-1.1.33,2,2,0,0,0-.8.68,1.87,1.87,0,0,0-.3,1.09,1.93,1.93,0,0,0,.81,1.79A4.18,4.18,0,0,0,163.68,33.67Z"/><path class="cls-2" d="M183.1,23.81a11.25,11.25,0,0,0-1.24-.32,9.2,9.2,0,0,0-1.84-.16,7.35,7.35,0,0,0-1.28.12,7.52,7.52,0,0,0-.94.21V36.22h-3.63V21.29a19.93,19.93,0,0,1,2.62-.73,16.4,16.4,0,0,1,3.5-.35c.24,0,.51,0,.83.05s.64.07,1,.12.63.11.93.18.54.13.72.19Z"/></g></g></svg>